<?xml version="1.0" encoding="UTF-8" standalone="no"?>
<!DOCTYPE svg PUBLIC "-//W3C//DTD SVG 1.1//EN" "http://www.w3.org/Graphics/SVG/1.1/DTD/svg11.dtd">
<svg width="100%" height="100%" viewBox="0 0 8333 5555" version="1.1" xmlns="http://www.w3.org/2000/svg" xmlns:xlink="http://www.w3.org/1999/xlink" xml:space="preserve" xmlns:serif="http://www.serif.com/" style="fill-rule:evenodd;clip-rule:evenodd;stroke-linejoin:round;stroke-miterlimit:2;">
    <g id="Layer-1" serif:id="Layer 1" transform="matrix(5.55556,0,0,5.55556,-1388.89,-2777.78)">
        <g transform="matrix(1,0,0,1,676.75,805.333)">
            <path d="M0,-157.769L1.76,-160.04L3.543,-157.769L3.412,-1.954L-0.125,-1.957L0,-157.769ZM1.716,6.359C8.356,14.899 14.329,20.11 19.493,21.456L19.682,-156.749L2.744,-179.225L-15.501,-156.72L-15.563,21.442C-10.445,20.235 -4.662,14.988 1.716,6.359" style="fill:rgb(179,138,96);fill-rule:nonzero;"/>
        </g>
        <g transform="matrix(1,0,0,1,1222.38,1074.4)">
            <path d="M0,-1.456L-0.385,-0.168L-0.385,0L0,-1.456Z" style="fill:rgb(179,138,96);fill-rule:nonzero;"/>
        </g>
        <g transform="matrix(1,0,0,1,824.949,688.755)">
            <path d="M0,405.922L18.91,380.284L47.736,341.192L112.508,340.564L165.589,285.633L262.257,286.18L193.535,387.16C184.32,387.883 176.776,391.38 171.09,397.597C159.421,410.323 160.271,429.774 160.317,430.595L160.476,433.919L10.584,433.919L0,405.922ZM-70.868,405.302C-66.727,400.806 -61.117,398.54 -53.734,398.399L-51.109,398.358L-37.44,380.898L5.697,325.855L-27.134,305.191L-27.134,268.679L-121.84,203.982L-121.055,234.547C-124.803,235.222 -130.58,236.017 -136.803,236.017C-144.737,236.017 -155.436,234.692 -161.368,228.382C-163.532,226.073 -164.961,223.215 -165.71,219.734L-138.562,219.824L-138.512,211.29L-166.272,211.202L-166.094,199.267L-138.562,199.357L-138.512,190.826L-165.973,190.738L-165.729,174.259C-160.863,173.599 -152.591,172.709 -143.518,172.709C-130.775,172.709 -120.603,174.394 -113.269,177.704C-90.722,187.904 -63.793,194.8 -62.654,195.087L-19.651,203.429L25.258,137.687L23.899,134.724C22.848,132.439 17.158,121.042 8.049,121.042C5.093,121.042 0.762,122.283 -3.148,128.188L-11.688,140.188C-16.337,133.474 -19.934,126.82 -20.743,123.386C-19.88,123.416 -18.902,123.443 -17.823,123.443C-4.396,123.443 3.384,120.362 5.98,114.042C7.49,110.364 12.018,97.539 7.072,86.959C4.47,81.4 -0.363,77.412 -6.917,75.445L-8.015,75.112L-9.154,75.251C-10.614,75.42 -23.184,77.2 -25.624,86.655L-26.844,89.444L-29.892,88.02L-37.125,86.967L-52.022,67.074L-25.697,49.007L22.558,33.506L-2.23,28.296L1.463,13.255L69.937,12.662C70.414,12.687 71.624,12.743 73.319,12.743C81.032,12.743 92.83,11.706 101.02,6.196C101.155,11.806 99.143,19.65 90.2,28.069L85.717,32.279L165.684,106.225L153.708,80.372C144.313,60.06 123.166,2.125 138.051,-21.739C142.709,-29.203 150.65,-32.836 162.31,-32.836L523.062,-32.213C522.447,-27.377 520.433,-19.685 514.103,-12.037C501.26,3.48 475.959,12.677 440.931,14.563L436.603,14.825L436.347,16.131L223.145,15.881C221.803,19.264 220.96,23.097 220.528,27.252L302.833,27.344L432.7,27.497C427.503,37.981 414.154,54.599 381.533,54.994L376.504,55.086L376.456,55.685L222.314,55.445C223.002,59.229 223.832,63.038 224.756,66.825L285.226,66.918L374.435,67.056C370.611,78.56 357.871,100.465 316.209,101.753L310.014,101.951L310.027,102.052L236.021,101.877C237.773,106.332 239.431,110.203 240.84,113.26L264.583,113.317L311.247,113.431C311.672,121.919 311.389,138.725 303.67,148.416C300.238,152.714 295.722,155.026 289.863,155.474L290.261,166.826L389.515,167.144C392.905,167.342 441.727,171.246 440.607,231.17C439.98,265.389 439.057,335.306 438.72,375.707C438.687,379.536 438.659,383.089 438.646,386.331L424.806,405.093L431.635,423.146L432.343,424.993L359.01,425.526C359.563,420.159 361.309,411.976 366.587,406.259C370.739,401.749 376.342,399.498 383.724,399.349L386.346,399.302L388.813,396.148L396.971,385.759L397.051,385.476L397.018,381.876L396.937,381.876L396.154,271.301L333.581,272.401L255.273,380.44L254.997,380.44L237.523,404.136L245.053,424.05L171.725,424.576C172.284,419.216 174.022,411.038 179.312,405.302C183.45,400.806 189.06,398.54 196.441,398.399L199.063,398.358L205.832,389.715L283.52,274.931L160.921,274.231L107.771,329.238L42.106,329.872L4.82,380.44L-12.66,404.136L-5.13,424.05L-78.449,424.576C-77.89,419.216 -76.15,411.038 -70.868,405.302M250.177,405.922L269.093,380.284L268.932,380.284L339.548,283.672L385.059,282.87L385.867,382.003L385.604,382.003L380.818,388.111C371.603,388.826 364.059,392.331 358.376,398.533C346.713,411.269 347.55,430.731 347.596,431.54L347.718,433.919L260.768,433.919L250.177,405.922ZM796.634,433.919L447.693,433.919L441.572,417.719L437.257,407.823L442.469,400.105L450.767,388.839C450.78,386.426 450.78,383.911 450.794,381.296C450.922,340.585 451.145,276.624 451.637,241.131C455.56,244.606 460.859,246.446 467.108,246.359C477.301,246.21 484.784,241.319 488.006,232.551C490.339,226.205 491.612,219.218 491.728,212.503C492.133,186.178 491.964,159.846 491.849,133.515C491.829,127.655 493.709,122.58 497.855,119.196L497.855,118.811L514.54,118.811C515.174,103.411 519.63,85.32 535.284,76.27L497.539,76.27C492.719,78.132 488.512,81.12 485.114,85.533C479.917,92.262 478.581,100.023 478.595,108.119C478.622,142.568 478.689,177.009 478.488,211.458C478.467,216.612 477.449,221.846 476.135,226.876C475.13,230.718 472.211,233.509 467.438,233.735C462.39,233.971 459.16,231.304 457.771,227.315C456.274,222.911 455.176,218.224 454.913,213.616C453.97,196.556 449.176,186.953 436.657,180.199C418.476,157.588 390.364,155.801 389.946,155.781L312.386,155.526C322.249,143.107 322.903,123.685 322.451,113.459L322.977,113.459L322.957,112.751C369.62,108.894 382.544,79.787 385.982,67.071L387.903,67.074L387.87,66.089C426.27,63.267 440.257,39.136 444.78,27.511L445.629,27.511L445.515,25.668C482.141,23.106 508.088,12.896 522.65,-4.713C536.233,-21.122 534.448,-37.851 534.367,-38.557L533.787,-43.561L162.316,-44.203C146.728,-44.203 135.385,-38.689 128.605,-27.824C114.517,-5.222 125.106,35.832 134.249,61.783L102.024,31.993C116.313,15.335 112.684,-1.391 108.345,-8.384L102.497,-17.801L98.431,-7.458C95.87,-0.946 83.789,1.373 73.319,1.373C71.614,1.373 70.529,1.304 70.448,1.304L70.246,1.283L-7.28,1.957L-13.408,26.856L-68.094,64.386L-43.238,97.569L-33.079,99.042L-21.219,104.577L-14.945,90.212L-14.82,89.594C-14.655,88.752 -11.885,87.331 -8.959,86.731C-6.074,87.82 -4.126,89.5 -3.026,91.847C-0.671,96.879 -2.265,104.593 -4.284,109.562C-4.782,110.209 -8.329,112.07 -17.823,112.07C-20.75,112.07 -22.9,111.88 -22.92,111.88L-23.925,111.79L-24.909,112.06C-28.186,112.993 -30.545,115.241 -31.546,118.406C-34.65,128.219 -21.684,146.097 -15.97,153.327L-11.379,159.139L5.967,134.776L6.088,134.596C7.288,132.763 8.049,132.432 8.035,132.415C8.899,132.537 10.689,134.377 12.249,136.797L-24.687,190.877L-60.092,184.017C-62.266,183.454 -87.914,176.724 -108.725,167.316C-116.046,164.009 -125.431,162.077 -136.638,161.525L-136.638,157.177C-114.637,166.136 -100.817,148.207 -110.653,121.743C-116.835,153.236 -129.425,153.151 -146.496,131.235C-162.527,152.953 -174.817,153.254 -182.32,121.646C-192.311,153.866 -174.291,164.386 -156.346,157.325L-156.346,161.841C-165.437,162.523 -171.857,163.685 -172.242,163.75L-176.772,164.585L-177.457,211.431C-177.912,221.766 -175.215,230.105 -169.451,236.243C-162.501,243.634 -151.512,247.386 -136.803,247.386C-124.716,247.386 -114.421,244.801 -113.989,244.69L-109.635,243.588L-110.097,225.702L-38.317,274.739L-38.317,311.527L-10.895,328.78L-51.861,381.06L-56.647,387.16C-65.859,387.883 -73.399,391.38 -79.09,397.597C-90.753,410.323 -89.906,429.774 -89.868,430.595L-89.7,433.919L-446.532,433.919L-446.532,450.125L796.634,450.125L796.634,433.919Z" style="fill:rgb(179,138,96);fill-rule:nonzero;"/>
        </g>
        <g transform="matrix(1,0,0,1,506.251,1267.25)">
            <path d="M0,12.25L-103.394,12.25L-103.394,82.138C-103.394,85.906 -102.935,88.556 -102.015,90.079C-101.095,91.609 -99.193,92.823 -96.318,93.72L-96.318,98.027L-127.834,98.027L-127.834,93.72C-124.959,92.823 -123.062,91.609 -122.142,90.079C-121.218,88.556 -120.759,85.906 -120.759,82.138L-120.759,-69.894C-120.759,-73.662 -121.237,-76.332 -122.195,-77.903C-123.152,-79.474 -125.033,-80.66 -127.834,-81.469L-127.834,-85.777L-96.318,-85.777L-96.318,-81.469C-99.119,-80.572 -101,-79.359 -101.957,-77.835C-102.918,-76.306 -103.394,-73.662 -103.394,-69.894L-103.394,-5.258L0,-5.258L0,-69.894C0,-73.662 -0.483,-76.332 -1.437,-77.903C-2.396,-79.474 -4.274,-80.66 -7.079,-81.469L-7.079,-85.777L24.437,-85.777L24.437,-81.469C21.633,-80.572 19.755,-79.359 18.798,-77.835C17.84,-76.306 17.358,-73.662 17.358,-69.894L17.358,82.138C17.358,85.818 17.84,88.448 18.798,90.012C19.755,91.59 21.633,92.823 24.437,93.72L24.437,98.027L-7.079,98.027L-7.079,93.72C-4.274,92.823 -2.396,91.609 -1.437,90.079C-0.483,88.556 0,85.906 0,82.138L0,12.25Z" style="fill:rgb(179,138,96);fill-rule:nonzero;"/>
        </g>
        <g transform="matrix(1,0,0,1,588.303,1267.24)">
            <path d="M0,12.255L0,80.526L96.759,80.526C99.857,80.526 102.048,79.944 103.339,78.778C104.627,77.612 105.607,75.32 106.269,71.909L109.808,71.909L109.808,106.648L106.269,106.648C105.534,103.236 104.519,100.944 103.228,99.784C101.94,98.618 99.75,98.032 96.658,98.032L-24.44,98.032L-24.44,93.725C-21.562,92.828 -19.667,91.614 -18.744,90.084C-17.824,88.561 -17.362,85.911 -17.362,82.143L-17.362,-69.889C-17.362,-73.657 -17.841,-76.301 -18.798,-77.83C-19.759,-79.354 -21.64,-80.567 -24.44,-81.464L-24.44,-85.772L95.32,-85.772C98.421,-85.772 100.592,-86.351 101.847,-87.498C103.1,-88.644 104.095,-90.942 104.833,-94.393L108.371,-94.393L108.371,-59.648L104.833,-59.648C104.168,-63.026 103.188,-65.305 101.899,-66.492C100.612,-67.672 98.421,-68.271 95.32,-68.271L0,-68.271L0,-5.253L62.477,-5.253C65.577,-5.253 67.768,-5.832 69.059,-6.998C70.351,-8.165 71.327,-10.457 71.988,-13.869L75.527,-13.869L75.527,20.877L71.988,20.877C71.327,17.466 70.351,15.174 69.059,14.008C67.768,12.842 65.577,12.255 62.477,12.255L0,12.255Z" style="fill:rgb(179,138,96);fill-rule:nonzero;"/>
        </g>
        <g transform="matrix(1,0,0,1,751.3,1281.66)">
            <path d="M0,-16.563L61.151,-16.563C69.484,-16.563 75.767,-16.988 80.007,-17.844C84.244,-18.694 87.985,-20.244 91.231,-22.489C98.822,-27.876 102.618,-36.896 102.618,-49.555C102.618,-62.297 98.715,-71.371 90.9,-76.757C87.436,-79.089 83.58,-80.66 79.343,-81.469C75.103,-82.279 68.526,-82.683 59.607,-82.683L0,-82.683L0,-16.563ZM0,0.938L0,67.75C0,71.425 0.479,74.047 1.439,75.612C2.396,77.183 4.273,78.416 7.078,79.313L7.078,83.621L-24.437,83.621L-24.437,79.313C-21.64,78.416 -19.759,77.203 -18.799,75.672C-17.841,74.149 -17.359,71.5 -17.359,67.731L-17.359,-84.3C-17.359,-88.069 -17.841,-90.739 -18.799,-92.31C-19.759,-93.88 -21.64,-95.067 -24.437,-95.876L-24.437,-100.184L58.388,-100.184C69.74,-100.184 78.717,-99.442 85.316,-97.959C91.912,-96.476 97.642,-93.894 102.51,-90.207C107.522,-86.431 111.577,-81.267 114.671,-74.701C118.214,-67.238 119.983,-58.838 119.983,-49.488C119.983,-35.466 116.168,-24.026 108.536,-15.168C100.905,-6.316 90.416,-1.26 77.074,0L115.446,72.591C117.731,77.069 121.049,79.313 125.403,79.313L125.403,83.621L90.463,83.621L90.463,79.313C94.069,78.598 95.88,77.337 95.88,75.544C95.88,74.648 94.588,71.736 92.007,66.807L57.717,0.938L0,0.938Z" style="fill:rgb(179,138,96);fill-rule:nonzero;"/>
        </g>
        <g transform="matrix(1,0,0,1,1001.63,1250.55)">
            <path d="M0,45.647L-33.986,-45.173L-67.942,45.647L0,45.647ZM6.378,63.154L-74.36,63.154L-87.631,98.027C-88.889,101.35 -89.508,103.683 -89.508,105.032C-89.508,107.721 -87.331,109.522 -82.963,110.418L-82.963,114.726L-116.636,114.726L-116.636,110.418C-113.616,109.792 -111.31,108.443 -109.726,106.38C-108.142,104.317 -106.058,99.828 -103.477,92.911L-48.184,-52.386C-46.859,-55.885 -46.195,-58.265 -46.195,-59.519C-46.195,-61.851 -48.002,-63.604 -51.614,-64.77L-51.614,-69.079L-14.901,-69.079L-14.901,-64.77C-18.512,-63.334 -20.321,-61.447 -20.321,-59.115C-20.321,-58.129 -19.653,-55.885 -18.33,-52.386L34.642,87.659C38.544,97.98 41.127,104.047 42.38,105.84C43.635,107.634 46.36,109.165 50.564,110.418L50.564,114.726L14.737,114.726L14.737,110.418C19.021,109.697 21.168,107.721 21.168,104.493C21.168,103.056 20.355,100.273 18.735,96.147L6.378,63.154Z" style="fill:rgb(179,138,96);fill-rule:nonzero;"/>
        </g>
        <g transform="matrix(1,0,0,1,1090.79,1341.98)">
            <path d="M0,-137.221L0,7.402C0,11.083 0.479,13.713 1.437,15.276C2.394,16.854 4.274,18.088 7.079,18.984L7.079,23.292L-22.891,23.292L-22.891,18.984C-20.019,18.088 -18.12,16.874 -17.193,15.343C-16.272,13.82 -15.814,11.171 -15.814,7.402L-15.814,-144.629C-15.814,-148.398 -16.297,-151.068 -17.25,-152.639C-18.212,-154.209 -20.089,-155.396 -22.891,-156.204L-22.891,-160.513L20.481,-160.513L20.481,-156.204C17.012,-154.769 15.28,-152.746 15.28,-150.145C15.28,-148.351 17.012,-144.98 20.481,-140.045L111.47,-10.509L111.47,-144.629C111.47,-148.398 110.987,-151.068 110.026,-152.639C109.069,-154.209 107.189,-155.396 104.391,-156.204L104.391,-160.513L134.356,-160.513L134.356,-156.204C131.552,-155.396 129.675,-154.209 128.717,-152.639C127.76,-151.068 127.281,-148.398 127.281,-144.629L127.281,7.402C127.281,11.171 127.76,13.82 128.717,15.343C129.675,16.874 131.552,18.088 134.356,18.984L134.356,23.292L99.514,23.292L99.514,18.984C102.904,17.906 104.597,16.064 104.597,13.463C104.597,11.488 103.049,8.258 99.952,3.769L0,-137.221Z" style="fill:rgb(179,138,96);fill-rule:nonzero;"/>
        </g>
        <g transform="matrix(1,0,0,1,1282.76,1198.98)">
            <path d="M0,148.791L54.518,148.791C70.515,148.791 82.383,145.783 90.126,139.77C99.264,132.59 105.971,121.589 110.252,106.778C113.05,96.908 114.455,86.088 114.455,74.325C114.455,52.962 109.993,35.279 101.073,21.27C96.132,13.552 90.126,8.077 83.047,4.849C75.972,1.612 66.459,-0.006 54.518,-0.006L0,-0.006L0,148.791ZM-17.363,152.296L-17.363,-3.504C-17.363,-6.201 -17.875,-8.258 -18.91,-9.7C-19.94,-11.136 -21.785,-12.302 -24.438,-13.198L-24.438,-17.507L55.181,-17.507C73.245,-17.507 87.064,-14.459 96.65,-8.352C108.738,-0.721 117.954,11.037 124.294,26.927C129.825,40.847 132.586,56.642 132.586,74.325C132.586,95.244 128.865,113.29 121.419,128.458C114.711,141.921 106.214,151.602 95.93,157.48C85.646,163.358 72.062,166.298 55.181,166.298L-24.438,166.298L-24.438,161.99C-21.785,161.094 -19.94,159.927 -18.91,158.485C-17.875,157.049 -17.363,154.986 -17.363,152.296" style="fill:rgb(179,138,96);fill-rule:nonzero;"/>
        </g>
        <g transform="matrix(1,0,0,1,1531.02,1350.06)">
            <path d="M0,-153.373C-22.634,-153.373 -40.546,-145.654 -53.745,-130.217C-65.833,-116.033 -71.876,-98.208 -71.876,-76.757C-71.876,-55.212 -65.833,-37.34 -53.745,-23.163C-40.62,-7.719 -22.634,-0 0.22,-0C23.146,-0 41.211,-7.719 54.403,-23.163C66.423,-37.34 72.43,-54.848 72.43,-75.678C72.43,-98.208 66.423,-116.39 54.403,-130.217C47.181,-138.468 39.44,-144.266 31.186,-147.582C22.041,-151.357 11.649,-153.286 0,-153.373M0,-171.824C26.615,-171.824 48.063,-163.337 64.36,-146.369C73.498,-136.944 80.354,-125.41 84.929,-111.766C88.689,-100.541 90.567,-88.474 90.567,-75.544C90.567,-58.036 86.475,-41.654 78.294,-26.393C69.298,-9.512 56.8,2.649 40.807,10.099C28.863,15.667 15.334,18.451 0.22,18.451C-26.247,18.451 -47.591,9.964 -63.807,-7.004C-72.871,-16.517 -79.73,-28.051 -84.372,-41.607C-88.133,-52.745 -90.018,-64.454 -90.018,-76.757C-90.018,-94.979 -85.959,-111.766 -77.854,-127.115C-69.005,-143.726 -56.473,-155.841 -40.253,-163.472C-28.896,-168.77 -15.481,-171.555 0,-171.824" style="fill:rgb(179,138,96);fill-rule:nonzero;"/>
        </g>
    </g>
</svg>
